# xmcd CD database file
#
# Track frame offsets:
#	150
#	12672
#	24923
#	36311
#	48514
#	61570
#	73927
#	86202
#	99135
#	110945
#	122444
#	134134
#	146269
#	157936
#	170201
#	182834
#	194568
#	206939
#	219324
#	232089
#	245547
#
# Disc length: 3433 seconds
#
# Revision: 1
# Processed by: cddbd v1.5PL3 Copyright (c) Steve Scherf et al.
# Submitted via: CDex 1.40Release
#
DISCID=3e0d6715
DTITLE=Sonny Terry and Brownie McGhee - My Skin is Black, My Soul Is Blue CD1
DYEAR=2001
DGENRE=Blues
TTITLE0=Train Whistle Blues
TTITLE1=New Love Blues
TTITLE2=Harmonica And Washboard Breakdown
TTITLE3=Harmonica Blues
TTITLE4=Blowing The Blues
TTITLE5=Pickin´ My Tomatoes
TTITLE6=Me And My Dog Blues
TTITLE7=Born For Bad Luck
TTITLE8=I´m Callin´ Daisy
TTITLE9=Step It Up And Go
TTITLE10=Ma Barkin´ Buldog Blues
TTITLE11=Let Tell You ´Bout My Baby
TTITLE12=Prison Woman Blues
TTITLE13=Back Door Stranger
TTITLE14=Be Good To Me
TTITLE15=Not Guilty Blues
TTITLE16=Coal Miner Blues
TTITLE17=Step It Up And Go No.2
TTITLE18=Money Spending Woman
TTITLE19=Death Of Blind Boy Fuller (1.)
TTITLE20=Death Of Blind Boy Fuller (2.)
EXTD=YEAR: 2001 ID3G: 0
EXTT0=
EXTT1=
EXTT2=
EXTT3=
EXTT4=
EXTT5=
EXTT6=
EXTT7=
EXTT8=
EXTT9=
EXTT10=
EXTT11=
EXTT12=
EXTT13=
EXTT14=
EXTT15=
EXTT16=
EXTT17=
EXTT18=
EXTT19=
EXTT20=
PLAYORDER=
